<?xml version="1.0" encoding="utf-8"?>
<!-- Generator: Adobe Illustrator 23.0.3, SVG Export Plug-In . SVG Version: 6.00 Build 0)  -->
<svg version="1.1" id="Layer_1" xmlns="http://www.w3.org/2000/svg" xmlns:xlink="http://www.w3.org/1999/xlink" x="0px" y="0px"
	 viewBox="0 0 50 50" style="enable-background:new 0 0 50 50;" xml:space="preserve">
<style type="text/css">
	.st0{fill:#3B4779;}
</style>
<g>
	<path class="st0" d="M12.97,6.2l2.14-2.14c0.29-0.28,0.61-0.43,0.98-0.43c0.37,0,0.7,0.14,0.99,0.43l19.95,19.95
		c0.29,0.29,0.43,0.61,0.43,0.98c0,0.37-0.14,0.7-0.43,0.99L17.08,45.94c-0.29,0.29-0.61,0.43-0.99,0.43c-0.37,0-0.7-0.14-0.98-0.43
		l-2.14-2.14c-0.29-0.29-0.43-0.62-0.43-0.99c0-0.37,0.14-0.7,0.43-0.99L29.8,25L12.97,8.17c-0.29-0.28-0.43-0.61-0.43-0.98
		C12.54,6.82,12.68,6.49,12.97,6.2z"/>
</g>
</svg>
