<?xml version="1.0" encoding="utf-8"?>
<!-- Generator: Adobe Illustrator 23.0.3, SVG Export Plug-In . SVG Version: 6.00 Build 0)  -->
<svg version="1.1" id="Layer_1" xmlns="http://www.w3.org/2000/svg" xmlns:xlink="http://www.w3.org/1999/xlink" x="0px" y="0px"
	 viewBox="0 0 50 50" style="enable-background:new 0 0 50 50;" xml:space="preserve">
<style type="text/css">
	.st0{fill:#3B4779;}
</style>
<g>
	<path class="st0" d="M37.46,7.19c0,0.37-0.14,0.7-0.43,0.98L20.2,25l16.83,16.83c0.29,0.29,0.43,0.62,0.43,0.99
		c0,0.37-0.14,0.7-0.43,0.99l-2.14,2.14c-0.29,0.29-0.61,0.43-0.98,0.43c-0.37,0-0.7-0.14-0.99-0.43L12.97,25.98
		c-0.29-0.29-0.43-0.61-0.43-0.99c0-0.37,0.14-0.7,0.43-0.98L32.92,4.06c0.29-0.28,0.61-0.43,0.99-0.43c0.37,0,0.7,0.14,0.98,0.43
		l2.14,2.14C37.32,6.49,37.46,6.82,37.46,7.19z"/>
</g>
</svg>
